<svg xmlns="http://www.w3.org/2000/svg" viewBox="0 0 64 64" role="img" aria-label="Kimi">
  <rect width="64" height="64" rx="18" fill="#06101e"/>
  <path d="M43.5 12c-8.7 2-15.2 9.8-15.2 19.1 0 9.2 6.4 17 15 19.1A22.5 22.5 0 1 1 43.5 12Z" fill="#ffe15a"/>
  <path d="M38.5 16.5c-6.2 2.4-10.6 8-10.6 14.6 0 6.6 4.4 12.2 10.6 14.6-8.7-.4-15.6-6.8-15.6-14.6 0-7.8 6.9-14.2 15.6-14.6Z" fill="#ff7a18"/>
  <path d="M42 31.5c3.2-1.1 5.4-3.3 6.5-6.5 1.1 3.2 3.3 5.4 6.5 6.5-3.2 1.1-5.4 3.3-6.5 6.5-1.1-3.2-3.3-5.4-6.5-6.5Z" fill="#8ff6ff"/>
</svg>
